<svg xmlns="http://www.w3.org/2000/svg" xmlns:xlink="http://www.w3.org/1999/xlink" version="1.1" id="Layer_1" x="0px" y="0px" width="100px" height="100px" viewBox="0 0 100 100" enable-background="new 0 0 100 100" xml:space="preserve">
<path fill="#000000" d="M20.883,41.191h-0.147c0,0-0.051,0.04-0.125,0.098c0.09-0.032,0.179-0.063,0.269-0.095  C20.88,41.194,20.881,41.192,20.883,41.191z"/>
<path d="M96.577,36.781C92.327,15.758,83.095-0.114,75.955,1.33c-3.103,0.626-5.298,4.424-6.441,10.24  c-3.755,4.283-18.947,20.018-46.515,28.912c-0.701,0.226-1.409,0.465-2.119,0.714c-15.444,14.701,0.816,27.86,0.816,27.86H21.68  c0.138,0.01,0.276,0.02,0.418,0.033c2.251,0.22,6.591,0.519,7.738,2.921c0,0,4.559,5.978,5.181,17.375c0,0,1.658,10.36,15.127,8.495  c0,0,1.968-2.486-0.415-3.729c0,0-0.725-2.176,0.622-1.761c0,0,1.349-4.25-2.279-5.389l-0.726-4.973c0,0-2.176-1.761-3.212-4.248  l0.104-3.834c0,0-4.87-3.004-0.415-7.252c0,0,27.659-0.572,41.922,8.821c0.503,0.415,1.003,0.769,1.502,1.06  c0.029,0.023,0.063,0.042,0.092,0.065c0.326,0.253,0.694,0.409,1.081,0.503c1,0.385,1.979,0.504,2.92,0.313  C98.48,76.014,100.824,57.802,96.577,36.781z M74.715,68.367c-2.998-0.872-6.078-1.442-9.165-1.882  c-6.309-0.898-12.749-1.229-19.12-1.075c-1.806,0.044-4.864-1.907-6.33-2.88c-1.772-1.178-3.262-2.705-4.387-4.512  c-2.914-4.682-3.078-10.153-0.689-15.063c1.187-2.438,2.595-4.843,4.841-6.438c2.992-2.125,6.444-3.547,9.542-5.507  c5.214-3.296,10.189-6.961,14.976-10.85c0.967-0.787,5.588-6.058,5.816-7.445c-0.061,0.369-0.104,0.736-0.158,1.105  c0.029-0.082,0.059-0.162,0.069-0.226c-0.264,1.595-0.45,3.186-0.591,4.771c-1.583,20.393,6.072,39.441,10.271,48.158  c1.27,2.575,2.134,4.034,2.134,4.034c-0.056-0.083-0.126-0.165-0.198-0.245c0.417,0.769,0.665,1.188,0.665,1.188  C81.313,69.858,76.491,68.885,74.715,68.367z M84.501,63.88c-0.258,0.06-0.531,0.02-0.812-0.065  c-0.006,0.001-0.01,0.006-0.016,0.008c-2.954,0.689-7.626-8.492-10.437-20.509c-2.81-12.017-2.693-22.317,0.259-23.009  c0.257-0.06,0.531-0.02,0.812,0.065c0.007-0.001,0.011-0.006,0.016-0.007c2.953-0.689,7.625,8.492,10.437,20.51  C87.57,52.889,87.452,63.189,84.501,63.88z"/>
<path d="M20.795,69c-5.637,0-10.206-6.212-10.206-13.875c0-7.362,4.221-13.369,9.551-13.83c-1.215-0.493-2.51-0.771-3.86-0.771  C9.498,40.524,4,47.266,4,55.581c0,8.316,5.498,15.058,12.28,15.058c2.072,0,4.021-0.636,5.733-1.746  C21.613,68.957,21.208,69,20.795,69z"/>
</svg>